<?xml version="1.0" encoding="UTF-8" standalone="no"?>
<!DOCTYPE svg PUBLIC "-//W3C//DTD SVG 1.1//EN" "http://www.w3.org/Graphics/SVG/1.1/DTD/svg11.dtd">
<svg width="100%" height="100%" viewBox="0 0 50 60" version="1.1" xmlns="http://www.w3.org/2000/svg" xmlns:xlink="http://www.w3.org/1999/xlink" xml:space="preserve" xmlns:serif="http://www.serif.com/" style="fill-rule:evenodd;clip-rule:evenodd;stroke-linejoin:round;stroke-miterlimit:2;">
    <g transform="matrix(1,0,0,1,-160,-5349)">
        <g transform="matrix(1.24794,0,0,1.24794,-436.221,5007.26)">
            <g id="LOGO" transform="matrix(0.11842,0,0,0.11842,468.95,265.824)">
                <g transform="matrix(1,0,0,1,78.8562,424.938)">
                    <path d="M-3.598,-312.325C9,-315.78 21.763,-319.283 34.528,-322.781C75.757,-334.077 116.993,-345.35 158.205,-356.707C161.558,-357.631 164.613,-357.167 167.849,-356.269C191.318,-349.758 214.811,-343.338 238.303,-336.908C267.546,-328.904 296.795,-320.916 326.045,-312.936C326.847,-312.717 327.686,-312.64 327.925,-312.372C329.221,-310.992 328.842,-309.779 328.842,-308.648C328.857,-250.999 328.871,-193.35 328.863,-135.702C328.861,-121.283 325.055,-107.807 318.654,-94.976C311.105,-79.847 301.283,-66.297 290.145,-53.646C268.926,-29.546 244.506,-9.046 218.83,10.082C200.555,23.695 181.615,36.308 162.181,48.796C151.567,41.741 140.864,34.765 130.304,27.578C108.163,12.511 86.78,-3.564 66.754,-21.372C46.681,-39.221 28.086,-58.417 13.6,-81.237C5.524,-93.959 -0.654,-107.466 -3.28,-122.435C-4.059,-126.878 -4.326,-131.381 -4.333,-135.84C-4.426,-193.489 -4.394,-251.138 -4.385,-308.787C-4.385,-309.766 -4.667,-310.792 -3.598,-312.325" style="fill:white;fill-rule:nonzero;"/>
                </g>
                <g transform="matrix(1,0,0,1,78.8562,424.938)">
                    <path d="M0,-308.835L0,-305.387C-0.002,-249.071 -0.011,-192.756 0.011,-136.44C0.012,-133.113 -0.009,-129.752 0.43,-126.466C2.4,-111.719 8.21,-98.388 15.882,-85.794C23.967,-72.521 33.801,-60.594 44.395,-49.287C59.792,-32.856 76.78,-18.168 94.424,-4.229C112.185,9.803 130.704,22.786 149.619,35.208C153.768,37.933 157.921,40.65 162.074,43.371C163.194,42.78 164.114,42.392 164.93,41.849C177.938,33.194 190.992,24.612 203.733,15.552C230.892,-3.761 256.874,-24.439 279.893,-48.652C291.037,-60.374 301.196,-72.848 309.517,-86.763C319.534,-103.515 324.808,-121.33 324.64,-141.153C324.183,-195.299 324.477,-249.451 324.462,-303.6C324.462,-305.238 324.704,-306.907 324.197,-308.415C323.194,-309.336 322.083,-309.62 320.956,-309.925C303.193,-314.733 285.428,-319.533 267.678,-324.387C233.619,-333.702 199.565,-343.031 165.528,-352.422C163.167,-353.074 161.047,-352.979 158.712,-352.328C143.068,-347.961 127.394,-343.704 111.725,-339.43C82.62,-331.489 53.509,-323.57 24.407,-315.621C16.423,-313.441 8.459,-311.189 0,-308.835M-3.598,-312.325C9,-315.78 21.763,-319.283 34.528,-322.781C75.757,-334.077 116.993,-345.35 158.205,-356.707C161.558,-357.631 164.613,-357.167 167.849,-356.269C191.318,-349.758 214.811,-343.338 238.303,-336.908C267.546,-328.904 296.795,-320.916 326.045,-312.936C326.847,-312.717 327.686,-312.64 327.925,-312.372C329.221,-310.992 328.842,-309.779 328.842,-308.648C328.857,-250.999 328.871,-193.35 328.863,-135.702C328.861,-121.283 325.055,-107.807 318.654,-94.976C311.105,-79.847 301.283,-66.297 290.145,-53.646C268.926,-29.546 244.506,-9.046 218.83,10.082C200.555,23.695 181.615,36.308 162.181,48.796C151.567,41.741 140.864,34.765 130.304,27.578C108.163,12.511 86.78,-3.564 66.754,-21.372C46.681,-39.221 28.086,-58.417 13.6,-81.237C5.524,-93.959 -0.654,-107.466 -3.28,-122.435C-4.059,-126.878 -4.326,-131.381 -4.333,-135.84C-4.426,-193.489 -4.394,-251.138 -4.385,-308.787C-4.385,-309.766 -4.667,-310.792 -3.598,-312.325" style="fill:rgb(213,59,61);fill-rule:nonzero;"/>
                </g>
                <g transform="matrix(1,0,0,1,359.327,230.789)">
                    <path d="M0,71.368C3.793,67.848 4.627,63.307 4.624,58.401C4.599,12.235 4.61,-33.931 4.581,-80.097C4.58,-81.548 5.022,-83.09 3.977,-84.675C-0.331,-85.856 -4.8,-87.084 -9.272,-88.306C-44.449,-97.918 -79.633,-107.501 -114.787,-117.194C-117.348,-117.9 -119.573,-117.715 -122.067,-117.031C-156.755,-107.518 -191.484,-98.149 -226.159,-88.588C-231.055,-87.238 -236.161,-86.408 -241.101,-84.066L-241.101,-78.508C-241.101,-34.175 -240.959,10.158 -241.222,54.49C-241.274,63.309 -238.543,70.667 -233.614,77.647C-226.583,87.602 -218.567,96.728 -210.21,105.537C-190.942,125.847 -170.923,145.394 -149.506,163.452C-143.538,168.484 -137.81,173.832 -131.302,178.203C-131.21,178.78 -130.883,179.08 -130.288,179.064C-130.011,179.88 -129.349,180.18 -128.581,180.338C-128.042,181.218 -127.392,181.963 -126.317,182.186C-123.823,184.58 -121.077,186.627 -118.047,188.468C-114.304,186.008 -111.047,183.232 -107.835,180.397C-107.522,180.295 -107.147,180.27 -106.904,180.079C-92.8,168.982 -79.088,157.407 -65.983,145.157C-51.9,131.991 -38.035,118.585 -24.948,104.404C-17.17,95.976 -9.511,87.455 -2.877,78.074C-1.447,76.053 0.136,74.072 0,71.368M-118.173,194.392C-128.655,186.53 -138.472,178.592 -148.214,170.561C-165.441,156.359 -181.639,141.013 -197.353,125.199C-210.826,111.641 -224.311,98.014 -235.491,82.385C-237.517,79.553 -239.376,76.59 -241.152,73.593C-244.271,68.327 -245.499,62.677 -245.479,56.466C-245.331,9.986 -245.4,-36.494 -245.383,-82.973C-245.382,-84.453 -245.681,-85.966 -245.032,-87.636C-243.272,-89.033 -240.899,-89.215 -238.702,-89.817C-204.178,-99.28 -169.648,-108.722 -135.119,-118.163C-132.563,-118.862 -129.872,-119.227 -127.461,-120.256C-120.973,-123.024 -114.796,-122.057 -108.208,-120.188C-81.108,-112.5 -53.893,-105.216 -26.721,-97.784C-15.056,-94.593 -3.39,-91.404 8.47,-88.161C9.237,-85.319 9.304,-82.384 9.304,-79.436C9.301,-34.456 9.262,10.524 9.341,55.505C9.354,63.072 7.356,69.875 3.311,76.223C-3.608,87.079 -12.051,96.701 -20.728,106.126C-29.184,115.31 -37.937,124.204 -46.853,132.952C-67.185,152.901 -88.6,171.585 -111.122,189.013C-113.355,190.74 -115.61,192.438 -118.173,194.392" style="fill:rgb(213,54,56);fill-rule:nonzero;"/>
                </g>
                <g transform="matrix(1,0,0,1,378.564,132.301)">
                    <path d="M0,-2.721C0.491,-3.078 0.435,-3.463 0.039,-3.838C-0.001,-3.875 -0.226,-3.808 -0.272,-3.733C-0.528,-3.313 -0.49,-2.949 0,-2.721M1.267,-0.235L-0.518,-0.205C-0.965,-1.421 -1.696,-1.441 -2.618,-0.713C-3.342,-0.143 -4.074,0.417 -4.803,0.981L-4.758,0.892C-4.609,0.291 -4.836,-0.097 -5.423,-0.281C-4.454,-5.86 -1.811,-6.705 3.075,-2.997C3.284,-2.443 3.317,-1.759 4.111,-1.609C4.781,-2.392 4.427,-3.056 3.861,-3.696C3.202,-9.571 3.202,-9.571 6.409,-13.488C10.265,-10.9 9.815,-7.315 8.363,-3.367C11.531,-3.221 13.67,-6.857 16.616,-4.47C18.408,-3.018 18.812,-1.269 18.381,0.84C17.728,2.484 16.031,3.003 15.087,4.282C13.71,3.021 13.936,1.354 13.051,-0.261C11.391,0.639 9.285,0.275 7.809,2.083C9.778,3.119 12.439,3.596 11.174,7.163C9.544,7.696 8.358,9.59 6.355,10.767C4.337,9.082 2.389,7.456 0.679,6.028C0.536,3.542 2.129,3.237 3.512,2.72C4.748,2.738 5.729,2.359 6.104,1.071C4.911,-0.957 2.974,-0.162 1.267,-0.235" style="fill:rgb(212,63,64);fill-rule:nonzero;"/>
                </g>
                <g transform="matrix(1,0,0,1,238.227,443.357)">
                    <path d="M0,-5.336C-0.526,-7.983 1.282,-9.502 2.636,-11.628C6.226,-8.687 6.409,-5.406 5.166,-1.746C5.888,-1.082 6.651,-1.257 7.424,-1.651C12.645,-4.311 14.768,-2.913 14.747,3.252C14.158,4.626 12.588,5.098 11.736,6.292C9.73,5.541 10.724,3.278 9.444,2.1C8.109,1.432 7.222,3.273 5.89,2.923C5.469,1.887 6.49,0.256 4.703,-0.185C2.956,0.344 5.018,1.833 3.819,2.577C3.173,2.271 2.478,1.941 1.783,1.611C1.781,1.287 1.766,0.964 1.737,0.642C1.883,-0.618 1.472,-1.411 0.058,-1.366C0.068,-2.377 0.079,-3.387 0.09,-4.398C0.218,-4.492 0.413,-4.56 0.462,-4.684C0.591,-5.019 0.408,-5.247 0,-5.336" style="fill:rgb(212,59,63);fill-rule:nonzero;"/>
                </g>
                <g transform="matrix(1,0,0,1,240.009,454.688)">
                    <path d="M0,-9.72C0.695,-9.39 1.39,-9.06 2.036,-8.753C3.236,-9.498 1.173,-10.987 2.921,-11.516C4.707,-11.075 3.686,-9.444 4.107,-8.408C3.809,-6.301 5.885,-5.887 6.944,-4.633C7.008,-0.824 2.732,-1.095 1.579,1.796C-0.779,-0.051 -2.778,-1.616 -4.601,-3.044C-4.952,-4.761 -3.882,-5.438 -3.01,-6.13C-1.848,-7.052 -2.72,-7.844 -3.01,-8.693C-2.42,-10.247 -1.047,-9.506 0,-9.72" style="fill:rgb(214,68,73);fill-rule:nonzero;"/>
                </g>
                <g transform="matrix(1,0,0,1,240.009,444.786)">
                    <path d="M0,0.182C-1.047,0.396 -2.42,-0.345 -3.01,1.209C-3.812,1.1 -4.615,0.991 -5.29,0.899C-6.651,2.01 -5.777,4.058 -7.445,4.833C-8.549,3.972 -9.681,3.09 -10.734,2.27C-11.037,-2.777 -11.037,-2.777 -6.425,-4.651C-4.454,-4.492 -3.514,-2.748 -2.051,-1.807C-1.383,-1.467 -0.714,-1.127 -0.046,-0.787C-0.017,-0.464 -0.002,-0.142 0,0.182" style="fill:rgb(211,66,65);fill-rule:nonzero;"/>
                </g>
                <g transform="matrix(0.197902,-0.980222,-0.980222,-0.197902,376.31,300.239)">
                    <path d="M-2.758,2.435C-0.636,3.837 1.476,3.708 3.164,2.435" style="fill:rgb(214,65,68);fill-rule:nonzero;"/>
                </g>
                <g transform="matrix(0.266599,0.963807,0.963807,-0.266599,375.824,131.389)">
                    <path d="M1.275,-2.493C0.926,-1.641 0.582,-0.785 0.225,0.064C-0.231,1.147 -0.017,1.847 1.275,1.952C2.41,1.043 4.297,1.393 5.135,-0.687C3.727,-0.971 3.164,-2.836 1.275,-2.493" style="fill:rgb(213,60,67);fill-rule:nonzero;"/>
                </g>
                <g transform="matrix(1,0,0,1,379.83,134.316)">
                    <path d="M0,-2.25C1.708,-2.177 3.645,-2.973 4.838,-0.944C4.462,0.344 3.482,0.723 2.245,0.705C1.497,-0.28 0.748,-1.265 0,-2.25" style="fill:rgb(213,60,67);fill-rule:nonzero;"/>
                </g>
                <g transform="matrix(1,0,0,1,239.963,441.947)">
                    <path d="M0,2.053C-0.668,1.713 -1.336,1.373 -2.005,1.032C-1.896,0.703 -1.787,0.374 -1.679,0.045C-0.265,0 0.147,0.793 0,2.053" style="fill:rgb(212,66,69);fill-rule:nonzero;"/>
                </g>
                <g transform="matrix(1,0,0,1,373.14,133.194)">
                    <path d="M0,-1.173C0.587,-0.989 0.815,-0.602 0.666,0C0.007,-0.143 -0.129,-0.583 0,-1.173" style="fill:rgb(213,60,67);fill-rule:nonzero;"/>
                </g>
                <g transform="matrix(1,0,0,1,238.227,438.959)">
                    <path d="M0,-0.938C0.408,-0.849 0.591,-0.621 0.462,-0.286C0.413,-0.162 0.218,-0.094 0.09,0C0.06,-0.313 0.03,-0.625 0,-0.938" style="fill:rgb(212,66,69);fill-rule:nonzero;"/>
                </g>
                <g transform="matrix(1,0,0,1,378.566,128.426)">
                    <path d="M0,1.154C-0.492,0.926 -0.53,0.562 -0.274,0.142C-0.228,0.067 -0.003,0 0.036,0.037C0.433,0.413 0.489,0.798 0,1.154" style="fill:rgb(213,60,67);fill-rule:nonzero;"/>
                </g>
                <g transform="matrix(1,0,0,1,218.487,198.824)">
                    <path d="M0,-17.901C-4.453,-17.649 -4.438,-17.628 -9.134,-14.5C-9.79,-14.064 -10.686,-14.004 -11.442,-13.7C-12.975,-13.083 -14.584,-12.579 -15.995,-11.746C-21.876,-8.271 -24.146,-2.77 -24.201,3.77C-24.287,14.096 -24.113,24.424 -24.293,34.748C-24.413,41.625 -29.785,46.898 -36.259,46.977C-42.677,47.056 -48.081,41.726 -48.442,34.857C-48.564,32.54 -48.461,30.21 -48.461,27.594C-44.409,25.851 -42.729,22.445 -42.133,18.255C-41.877,16.462 -41.17,14.854 -39.648,13.546C-35.591,10.056 -34.106,5.528 -34.293,0.183C-34.52,-6.304 -34.726,-12.836 -34.231,-19.294C-33.731,-25.82 -35.887,-32.059 -35.53,-38.526C-35.405,-40.781 -37.43,-43.018 -39.572,-43.668C-41.869,-44.365 -44.723,-43.273 -46.125,-41.158C-47.514,-39.064 -47.438,-36.772 -45.878,-34.679C-44.391,-32.682 -42.322,-31.79 -39.829,-31.87C-39.376,-30.758 -38.696,-29.853 -38.683,-28.937C-38.585,-22.115 -38.047,-15.23 -38.762,-8.483C-39.603,-0.551 -47.732,3.875 -55.199,1.102C-60.503,-0.868 -62.849,-5.226 -63.196,-10.518C-63.545,-15.825 -63.409,-21.173 -63.26,-26.497C-63.211,-28.256 -62.792,-30.109 -61.669,-31.566C-60.467,-31.901 -59.321,-32.106 -58.266,-32.536C-54.98,-33.875 -53.671,-36.47 -54.542,-39.712C-55.297,-42.52 -58.212,-44.318 -61.107,-43.762C-64.07,-43.194 -66.17,-40.399 -65.824,-37.145C-65.703,-35.997 -65.174,-34.893 -65.779,-33.764C-67.759,-30.072 -67.536,-26.064 -67.522,-22.074C-67.497,-14.745 -67.359,-7.413 -67.562,-0.09C-67.716,5.458 -65.814,10.032 -61.87,13.734C-60.563,14.961 -59.669,16.192 -59.535,17.927C-59.176,22.568 -57.289,26.193 -52.565,27.949C-52.565,30.84 -52.707,33.503 -52.541,36.147C-51.852,47.131 -40.017,54.338 -29.972,49.905C-22.963,46.811 -19.731,41.151 -19.631,33.709C-19.493,23.384 -19.648,13.056 -19.565,2.73C-19.51,-4.171 -16.26,-7.864 -8.964,-9.266C-7.225,-5.454 -3.271,-7.266 -0.418,-6.403C5.407,-0.712 11.979,-0.015 16.443,-4.458C20.757,-8.752 20.71,-15.27 16.335,-19.59C11.654,-24.211 5.921,-23.678 0,-17.901M-95.472,60.977L-95.472,-48.321C-56.988,-58.854 -18.657,-69.344 19.676,-79.834C20.757,-75.781 21.199,44.908 20.253,60.541C16.681,61.506 -84.767,61.933 -95.472,60.977" style="fill:rgb(211,44,44);fill-rule:nonzero;"/>
                </g>
                <g transform="matrix(1,0,0,1,296.018,328.65)">
                    <path d="M0,19.366C19.625,19.358 35.952,3.176 35.954,-16.435C35.957,-37.194 19.108,-52.671 -0.057,-52.653C-19.086,-52.636 -36.008,-37.347 -35.996,-16.378C-35.986,3.186 -19.631,19.374 0,19.366M60.398,-26.802C43.682,-2.521 22.506,17.727 1.471,38.075C-13.593,52.649 -29.508,66.277 -45.929,79.309C-46.432,79.708 -46.824,80.249 -47.268,80.724C-47.55,80.897 -47.8,81.108 -48.018,81.357C-48.605,81.407 -48.948,81.741 -49.106,82.291L-49.068,82.257C-49.879,82.317 -50.611,82.496 -50.832,83.438L-50.969,83.53C-51.637,83.443 -52.306,83.355 -52.974,83.267L-52.943,83.312C-52.799,82.99 -52.805,82.67 -52.961,82.353C-52.907,79.36 -52.807,76.366 -52.806,73.373C-52.795,29.91 -52.796,-13.552 -52.803,-57.015C-52.803,-58.51 -52.895,-60.005 -52.945,-61.501C-52.246,-64.164 -49.893,-63.568 -48.054,-63.983C-46.898,-63.911 -45.743,-63.776 -44.587,-63.776C-10.551,-63.766 23.486,-63.768 57.523,-63.78C58.679,-63.781 59.835,-63.903 60.991,-63.968L61.972,-63.968C62.397,-63.892 62.821,-63.816 63.246,-63.74C63.186,-53.379 63.126,-43.017 63.066,-32.656C62.858,-32.437 62.79,-32.182 62.863,-31.889C61.795,-31.147 61.864,-29.965 61.694,-28.875L61.855,-28.642L61.714,-28.877C61.081,-28.707 60.942,-28.22 60.928,-27.653C60.752,-27.369 60.575,-27.086 60.398,-26.802" style="fill:rgb(212,46,46);fill-rule:nonzero;"/>
                </g>
                <g transform="matrix(1,0,0,1,299.862,240.249)">
                    <path d="M0,-65.225C2.261,-66.759 3.806,-68.499 5.709,-69.839C12.704,-74.761 20.222,-75.301 28.036,-72.723C40.202,-68.709 47.573,-57.092 47.988,-45.479C48.253,-38.041 44.828,-31.672 40.48,-25.86C32.139,-14.708 22.046,-5.342 10.839,2.865C8.423,4.634 5.969,6.356 3.618,8.209C1.337,10.007 -0.76,10.076 -3.175,8.345C-17.018,-1.58 -30.187,-12.229 -40.384,-26.076C-44.167,-31.212 -47.169,-36.804 -47.674,-43.276C-48.096,-48.677 -46.735,-53.831 -44.06,-58.574C-39.604,-66.478 -33.325,-71.767 -24.11,-73.596C-15.906,-75.225 -9.055,-72.967 -2.816,-67.888C-1.918,-67.157 -1.126,-66.296 0,-65.225" style="fill:rgb(211,44,44);fill-rule:nonzero;"/>
                </g>
                <g transform="matrix(1,0,0,1,196.937,306.046)">
                    <path d="M0,-3.468C-10.903,7.322 -21.518,17.826 -32.463,28.657C-33.702,27.439 -35.337,25.849 -36.955,24.241C-42.27,18.957 -47.58,13.669 -52.888,8.378C-55.995,5.282 -58.334,1.727 -59.787,-2.454C-63.886,-14.253 -56.331,-30.611 -38.537,-31.799C-33.651,-32.125 -28.84,-30.582 -25.034,-27.466C-16.039,-20.103 -8.312,-11.401 0,-3.468" style="fill:rgb(212,46,46);fill-rule:nonzero;"/>
                </g>
                <g transform="matrix(1,0,0,1,200.728,324.796)">
                    <path d="M0,25.556C-4.173,21.402 -8.351,17.183 -12.606,13.044C-13.932,11.754 -15.27,11.926 -16.274,13.575C-15.231,15.713 -5.136,26.666 -3.27,27.645C-1.78,28.427 -0.74,28.022 0,25.556M-32.144,12.822C-21.589,2.233 -11.272,-8.116 -0.673,-18.749C0.241,-18.87 0.89,-17.752 1.676,-16.975C7.83,-10.894 13.955,-4.782 20.088,1.322C21.503,2.73 22.72,4.283 23.895,5.909C31.638,16.623 28.123,28.211 21.109,34.868C13.829,41.776 2.457,44.426 -8.573,36.577C-10.66,35.093 -30.317,15.181 -32.144,12.822" style="fill:rgb(211,45,45);fill-rule:nonzero;"/>
                </g>
                <g transform="matrix(1,0,0,1,155.365,213.218)">
                    <path d="M0,-13.115C8.033,-6.958 15.574,-6.148 24.023,-12.764C24.713,-7.241 20.503,-1.927 14.808,-1.13C6.728,0 1.56,-4.048 0,-13.115" style="fill:rgb(211,52,53);fill-rule:nonzero;"/>
                </g>
                <g transform="matrix(1,0,0,1,224.096,186.32)">
                    <path d="M0,0.678C0.959,2.455 1.902,4.036 4.146,3.43C5.569,3.046 6.142,1.878 6.105,0.4C6.073,-0.887 5.523,-1.9 4.316,-2.238C2.155,-2.844 0.96,-1.588 0,0.678M3.298,6.733C-0.274,6.697 -3.083,3.868 -2.985,0.404C-2.891,-2.918 0.281,-6.09 3.447,-6.028C6.571,-5.967 9.786,-2.627 9.798,0.567C9.809,3.898 6.784,6.768 3.298,6.733" style="fill:rgb(212,63,64);fill-rule:nonzero;"/>
                </g>
                <g transform="matrix(-0.679191,-0.733961,-0.733961,0.679191,162.836,218.487)">
                    <path d="M-4.003,-8.194C-6.504,-6.896 -6.692,-5.074 -7.094,-3.443C-6.672,-1.59 -5.522,-0.513 -4.003,0.278C-2.069,0.486 -0.492,-0.232 1.182,-1.642C-0.488,-3.801 -3.086,-5.133 -4.003,-8.194" style="fill:rgb(212,66,69);fill-rule:nonzero;"/>
                </g>
                <g transform="matrix(1,0,0,1,288.026,332.512)">
                    <path d="M0,-41.478C5.503,-44.401 10.472,-43.311 15.796,-42.015L15.796,-28.836C20.291,-27.785 24.645,-28.971 29.253,-27.957C31.345,-22.983 31.395,-18.042 29.216,-13.063C24.725,-12.136 20.553,-13.053 16.237,-12.405C15.226,-8.182 16.487,-3.814 15.407,0.777C10.425,2.873 5.478,2.923 0.157,0.583L0.157,-12.199C-4.361,-13.268 -8.724,-11.987 -13.273,-13.104C-15.622,-17.907 -15.121,-22.761 -13.687,-27.682C-9.092,-29.136 -4.719,-27.837 0,-28.72L0,-41.478Z" style="fill:rgb(212,49,49);fill-rule:nonzero;"/>
                </g>
                <g transform="matrix(1,0,0,1,238.227,443.357)">
                    <path d="M0,-5.336C-0.526,-7.983 1.282,-9.502 2.636,-11.628C6.226,-8.687 6.409,-5.406 5.166,-1.746C5.888,-1.082 6.651,-1.257 7.424,-1.651C12.645,-4.311 14.768,-2.913 14.747,3.252C14.158,4.626 12.588,5.098 11.736,6.292C9.73,5.541 10.724,3.278 9.444,2.1C8.109,1.432 7.222,3.273 5.89,2.923C5.469,1.887 6.49,0.256 4.703,-0.185C2.956,0.344 5.018,1.833 3.819,2.577C3.173,2.271 2.478,1.941 1.783,1.611C1.781,1.287 1.766,0.964 1.737,0.642C1.883,-0.618 1.472,-1.411 0.058,-1.366C0.068,-2.377 0.079,-3.387 0.09,-4.398C0.218,-4.492 0.413,-4.56 0.462,-4.684C0.591,-5.019 0.408,-5.247 0,-5.336" style="fill:rgb(212,59,63);fill-rule:nonzero;"/>
                </g>
                <g transform="matrix(1,0,0,1,240.009,454.688)">
                    <path d="M0,-9.72C0.695,-9.39 1.39,-9.06 2.036,-8.753C3.236,-9.498 1.173,-10.987 2.921,-11.516C4.707,-11.075 3.686,-9.444 4.107,-8.408C3.809,-6.301 5.885,-5.887 6.944,-4.633C7.008,-0.824 2.732,-1.095 1.579,1.796C-0.779,-0.051 -2.778,-1.616 -4.601,-3.044C-4.952,-4.761 -3.882,-5.438 -3.01,-6.13C-1.848,-7.052 -2.72,-7.844 -3.01,-8.693C-2.42,-10.247 -1.047,-9.506 0,-9.72" style="fill:rgb(214,68,73);fill-rule:nonzero;"/>
                </g>
                <g transform="matrix(1,0,0,1,240.009,444.786)">
                    <path d="M0,0.182C-1.047,0.396 -2.42,-0.345 -3.01,1.209C-3.812,1.1 -4.615,0.991 -5.29,0.899C-6.651,2.01 -5.777,4.058 -7.445,4.833C-8.549,3.972 -9.681,3.09 -10.734,2.27C-11.037,-2.777 -11.037,-2.777 -6.425,-4.651C-4.454,-4.492 -3.514,-2.748 -2.051,-1.807C-1.383,-1.467 -0.714,-1.127 -0.046,-0.787C-0.017,-0.464 -0.002,-0.142 0,0.182" style="fill:rgb(211,66,65);fill-rule:nonzero;"/>
                </g>
                <g transform="matrix(1,0,0,1,239.963,441.947)">
                    <path d="M0,2.053C-0.668,1.713 -1.336,1.373 -2.005,1.032C-1.896,0.703 -1.787,0.374 -1.679,0.045C-0.265,0 0.147,0.793 0,2.053" style="fill:rgb(212,66,69);fill-rule:nonzero;"/>
                </g>
                <g transform="matrix(1,0,0,1,238.227,438.959)">
                    <path d="M0,-0.938C0.408,-0.849 0.591,-0.621 0.462,-0.286C0.413,-0.162 0.218,-0.094 0.09,0C0.06,-0.313 0.03,-0.625 0,-0.938" style="fill:rgb(212,66,69);fill-rule:nonzero;"/>
                </g>
                <g transform="matrix(1,0,0,1,238.21,89.6862)">
                    <path d="M0,-5.336C-0.526,-7.983 1.282,-9.502 2.636,-11.628C6.226,-8.687 6.409,-5.406 5.166,-1.746C5.888,-1.082 6.651,-1.257 7.424,-1.651C12.645,-4.311 14.768,-2.913 14.747,3.252C14.158,4.626 12.588,5.098 11.736,6.292C9.73,5.541 10.724,3.278 9.444,2.1C8.109,1.432 7.222,3.273 5.89,2.923C5.469,1.887 6.49,0.256 4.703,-0.185C2.956,0.344 5.018,1.833 3.819,2.577C3.173,2.271 2.478,1.941 1.783,1.611C1.781,1.287 1.766,0.964 1.737,0.642C1.883,-0.618 1.472,-1.411 0.058,-1.366C0.068,-2.377 0.079,-3.387 0.09,-4.398C0.218,-4.492 0.413,-4.56 0.462,-4.684C0.591,-5.019 0.408,-5.247 0,-5.336" style="fill:rgb(212,59,63);fill-rule:nonzero;"/>
                </g>
                <g transform="matrix(1,0,0,1,239.993,101.017)">
                    <path d="M0,-9.72C0.695,-9.39 1.39,-9.06 2.036,-8.753C3.236,-9.498 1.173,-10.987 2.921,-11.516C4.707,-11.075 3.686,-9.444 4.107,-8.408C3.809,-6.301 5.885,-5.887 6.944,-4.633C7.008,-0.824 2.732,-1.095 1.579,1.796C-0.779,-0.051 -2.778,-1.616 -4.601,-3.044C-4.952,-4.761 -3.882,-5.438 -3.01,-6.13C-1.848,-7.052 -2.72,-7.844 -3.01,-8.693C-2.42,-10.247 -1.047,-9.506 0,-9.72" style="fill:rgb(214,68,73);fill-rule:nonzero;"/>
                </g>
                <g transform="matrix(1,0,0,1,239.993,91.1149)">
                    <path d="M0,0.182C-1.047,0.396 -2.42,-0.345 -3.01,1.209C-3.812,1.1 -4.615,0.991 -5.29,0.899C-6.651,2.01 -5.777,4.058 -7.445,4.833C-8.549,3.972 -9.681,3.09 -10.734,2.27C-11.037,-2.777 -11.037,-2.777 -6.425,-4.651C-4.454,-4.492 -3.514,-2.748 -2.051,-1.807C-1.383,-1.467 -0.714,-1.127 -0.046,-0.787C-0.017,-0.464 -0.002,-0.142 0,0.182" style="fill:rgb(211,66,65);fill-rule:nonzero;"/>
                </g>
                <g transform="matrix(1,0,0,1,239.946,88.2753)">
                    <path d="M0,2.053C-0.668,1.713 -1.336,1.373 -2.005,1.032C-1.896,0.703 -1.787,0.374 -1.679,0.045C-0.265,0 0.147,0.793 0,2.053" style="fill:rgb(212,66,69);fill-rule:nonzero;"/>
                </g>
                <g transform="matrix(1,0,0,1,238.21,85.2882)">
                    <path d="M0,-0.938C0.408,-0.849 0.591,-0.621 0.462,-0.286C0.413,-0.162 0.218,-0.094 0.09,0C0.06,-0.313 0.03,-0.625 0,-0.938" style="fill:rgb(212,66,69);fill-rule:nonzero;"/>
                </g>
                <g transform="matrix(1,0,0,1,94.2099,127.686)">
                    <path d="M0,-5.336C-0.526,-7.983 1.282,-9.502 2.636,-11.628C6.226,-8.687 6.409,-5.406 5.166,-1.746C5.888,-1.082 6.651,-1.257 7.424,-1.651C12.645,-4.311 14.768,-2.913 14.747,3.252C14.158,4.626 12.588,5.098 11.736,6.292C9.73,5.541 10.724,3.278 9.444,2.1C8.109,1.432 7.222,3.273 5.89,2.923C5.469,1.887 6.49,0.256 4.703,-0.185C2.956,0.344 5.018,1.833 3.819,2.577C3.173,2.271 2.478,1.941 1.783,1.611C1.781,1.287 1.766,0.964 1.737,0.642C1.883,-0.618 1.472,-1.411 0.058,-1.366C0.068,-2.377 0.079,-3.387 0.09,-4.398C0.218,-4.492 0.413,-4.56 0.462,-4.684C0.591,-5.019 0.408,-5.247 0,-5.336" style="fill:rgb(212,59,63);fill-rule:nonzero;"/>
                </g>
                <g transform="matrix(1,0,0,1,95.9926,139.017)">
                    <path d="M0,-9.72C0.695,-9.39 1.39,-9.06 2.036,-8.753C3.236,-9.498 1.173,-10.987 2.921,-11.516C4.707,-11.075 3.686,-9.444 4.107,-8.408C3.809,-6.301 5.885,-5.887 6.944,-4.633C7.008,-0.824 2.732,-1.095 1.579,1.796C-0.779,-0.051 -2.778,-1.616 -4.601,-3.044C-4.952,-4.761 -3.882,-5.438 -3.01,-6.13C-1.848,-7.052 -2.72,-7.844 -3.01,-8.693C-2.42,-10.247 -1.047,-9.506 0,-9.72" style="fill:rgb(214,68,73);fill-rule:nonzero;"/>
                </g>
                <g transform="matrix(1,0,0,1,95.9926,129.115)">
                    <path d="M0,0.182C-1.047,0.396 -2.42,-0.345 -3.01,1.209C-3.812,1.1 -4.615,0.991 -5.29,0.899C-6.651,2.01 -5.777,4.058 -7.445,4.833C-8.549,3.972 -9.681,3.09 -10.734,2.27C-11.037,-2.777 -11.037,-2.777 -6.425,-4.651C-4.454,-4.492 -3.514,-2.748 -2.051,-1.807C-1.383,-1.467 -0.714,-1.127 -0.046,-0.787C-0.017,-0.464 -0.002,-0.142 0,0.182" style="fill:rgb(211,66,65);fill-rule:nonzero;"/>
                </g>
                <g transform="matrix(1,0,0,1,95.9464,126.275)">
                    <path d="M0,2.053C-0.668,1.713 -1.336,1.373 -2.005,1.032C-1.896,0.703 -1.787,0.374 -1.679,0.045C-0.265,0 0.147,0.793 0,2.053" style="fill:rgb(212,66,69);fill-rule:nonzero;"/>
                </g>
                <g transform="matrix(1,0,0,1,94.2099,123.288)">
                    <path d="M0,-0.938C0.408,-0.849 0.591,-0.621 0.462,-0.286C0.413,-0.162 0.218,-0.094 0.09,0C0.06,-0.313 0.03,-0.625 0,-0.938" style="fill:rgb(212,66,69);fill-rule:nonzero;"/>
                </g>
                <g transform="matrix(1,0,0,1,95.2267,298.358)">
                    <path d="M0,-5.336C-0.526,-7.983 1.282,-9.502 2.636,-11.628C6.226,-8.687 6.409,-5.406 5.166,-1.746C5.888,-1.082 6.651,-1.257 7.424,-1.651C12.645,-4.311 14.768,-2.913 14.747,3.252C14.158,4.626 12.588,5.098 11.736,6.292C9.73,5.541 10.724,3.278 9.444,2.1C8.109,1.432 7.222,3.273 5.89,2.923C5.469,1.887 6.49,0.256 4.703,-0.185C2.956,0.344 5.018,1.833 3.819,2.577C3.173,2.271 2.478,1.941 1.783,1.611C1.781,1.287 1.766,0.964 1.737,0.642C1.883,-0.618 1.472,-1.411 0.058,-1.366C0.068,-2.377 0.079,-3.387 0.09,-4.398C0.218,-4.492 0.413,-4.56 0.462,-4.684C0.591,-5.019 0.408,-5.247 0,-5.336" style="fill:rgb(212,59,63);fill-rule:nonzero;"/>
                </g>
                <g transform="matrix(1,0,0,1,97.0095,309.688)">
                    <path d="M0,-9.72C0.695,-9.39 1.39,-9.06 2.036,-8.753C3.236,-9.498 1.173,-10.987 2.921,-11.516C4.707,-11.075 3.686,-9.444 4.107,-8.408C3.809,-6.301 5.885,-5.887 6.944,-4.633C7.008,-0.824 2.732,-1.095 1.579,1.796C-0.779,-0.051 -2.778,-1.616 -4.601,-3.044C-4.952,-4.761 -3.882,-5.438 -3.01,-6.13C-1.848,-7.052 -2.72,-7.844 -3.01,-8.693C-2.42,-10.247 -1.047,-9.506 0,-9.72" style="fill:rgb(214,68,73);fill-rule:nonzero;"/>
                </g>
                <g transform="matrix(1,0,0,1,97.0095,299.786)">
                    <path d="M0,0.182C-1.047,0.396 -2.42,-0.345 -3.01,1.209C-3.812,1.1 -4.615,0.991 -5.29,0.899C-6.651,2.01 -5.777,4.058 -7.445,4.833C-8.549,3.972 -9.681,3.09 -10.734,2.27C-11.037,-2.777 -11.037,-2.777 -6.425,-4.651C-4.454,-4.492 -3.514,-2.748 -2.051,-1.807C-1.383,-1.467 -0.714,-1.127 -0.046,-0.787C-0.017,-0.464 -0.002,-0.142 0,0.182" style="fill:rgb(211,66,65);fill-rule:nonzero;"/>
                </g>
                <g transform="matrix(1,0,0,1,96.9633,296.947)">
                    <path d="M0,2.053C-0.668,1.713 -1.336,1.373 -2.005,1.032C-1.896,0.703 -1.787,0.374 -1.679,0.045C-0.265,0 0.147,0.793 0,2.053" style="fill:rgb(212,66,69);fill-rule:nonzero;"/>
                </g>
                <g transform="matrix(1,0,0,1,95.2267,293.959)">
                    <path d="M0,-0.938C0.408,-0.849 0.591,-0.621 0.462,-0.286C0.413,-0.162 0.218,-0.094 0.09,0C0.06,-0.313 0.03,-0.625 0,-0.938" style="fill:rgb(212,66,69);fill-rule:nonzero;"/>
                </g>
                <g transform="matrix(1,0,0,1,95.2267,298.358)">
                    <path d="M0,-5.336C-0.526,-7.983 1.282,-9.502 2.636,-11.628C6.226,-8.687 6.409,-5.406 5.166,-1.746C5.888,-1.082 6.651,-1.257 7.424,-1.651C12.645,-4.311 14.768,-2.913 14.747,3.252C14.158,4.626 12.588,5.098 11.736,6.292C9.73,5.541 10.724,3.278 9.444,2.1C8.109,1.432 7.222,3.273 5.89,2.923C5.469,1.887 6.49,0.256 4.703,-0.185C2.956,0.344 5.018,1.833 3.819,2.577C3.173,2.271 2.478,1.941 1.783,1.611C1.781,1.287 1.766,0.964 1.737,0.642C1.883,-0.618 1.472,-1.411 0.058,-1.366C0.068,-2.377 0.079,-3.387 0.09,-4.398C0.218,-4.492 0.413,-4.56 0.462,-4.684C0.591,-5.019 0.408,-5.247 0,-5.336" style="fill:rgb(212,59,63);fill-rule:nonzero;"/>
                </g>
                <g transform="matrix(1,0,0,1,97.0095,309.688)">
                    <path d="M0,-9.72C0.695,-9.39 1.39,-9.06 2.036,-8.753C3.236,-9.498 1.173,-10.987 2.921,-11.516C4.707,-11.075 3.686,-9.444 4.107,-8.408C3.809,-6.301 5.885,-5.887 6.944,-4.633C7.008,-0.824 2.732,-1.095 1.579,1.796C-0.779,-0.051 -2.778,-1.616 -4.601,-3.044C-4.952,-4.761 -3.882,-5.438 -3.01,-6.13C-1.848,-7.052 -2.72,-7.844 -3.01,-8.693C-2.42,-10.247 -1.047,-9.506 0,-9.72" style="fill:rgb(214,68,73);fill-rule:nonzero;"/>
                </g>
                <g transform="matrix(1,0,0,1,97.0095,299.786)">
                    <path d="M0,0.182C-1.047,0.396 -2.42,-0.345 -3.01,1.209C-3.812,1.1 -4.615,0.991 -5.29,0.899C-6.651,2.01 -5.777,4.058 -7.445,4.833C-8.549,3.972 -9.681,3.09 -10.734,2.27C-11.037,-2.777 -11.037,-2.777 -6.425,-4.651C-4.454,-4.492 -3.514,-2.748 -2.051,-1.807C-1.383,-1.467 -0.714,-1.127 -0.046,-0.787C-0.017,-0.464 -0.002,-0.142 0,0.182" style="fill:rgb(211,66,65);fill-rule:nonzero;"/>
                </g>
                <g transform="matrix(1,0,0,1,96.9633,296.947)">
                    <path d="M0,2.053C-0.668,1.713 -1.336,1.373 -2.005,1.032C-1.896,0.703 -1.787,0.374 -1.679,0.045C-0.265,0 0.147,0.793 0,2.053" style="fill:rgb(212,66,69);fill-rule:nonzero;"/>
                </g>
                <g transform="matrix(1,0,0,1,95.2267,293.959)">
                    <path d="M0,-0.938C0.408,-0.849 0.591,-0.621 0.462,-0.286C0.413,-0.162 0.218,-0.094 0.09,0C0.06,-0.313 0.03,-0.625 0,-0.938" style="fill:rgb(212,66,69);fill-rule:nonzero;"/>
                </g>
                <g transform="matrix(1,0,0,1,382.227,299.358)">
                    <path d="M0,-5.336C-0.526,-7.983 1.282,-9.502 2.636,-11.628C6.226,-8.687 6.409,-5.406 5.166,-1.746C5.888,-1.082 6.651,-1.257 7.424,-1.651C12.645,-4.311 14.768,-2.913 14.747,3.252C14.158,4.626 12.588,5.098 11.736,6.292C9.73,5.541 10.724,3.278 9.444,2.1C8.109,1.432 7.222,3.273 5.89,2.923C5.469,1.887 6.49,0.256 4.703,-0.185C2.956,0.344 5.018,1.833 3.819,2.577C3.173,2.271 2.478,1.941 1.783,1.611C1.781,1.287 1.766,0.964 1.737,0.642C1.883,-0.618 1.472,-1.411 0.058,-1.366C0.068,-2.377 0.079,-3.387 0.09,-4.398C0.218,-4.492 0.413,-4.56 0.462,-4.684C0.591,-5.019 0.408,-5.247 0,-5.336" style="fill:rgb(212,59,63);fill-rule:nonzero;"/>
                </g>
                <g transform="matrix(1,0,0,1,385.589,299.172)">
                    <path d="M0,13.313C-2.358,11.466 -4.357,9.9 -6.18,8.473C-6.531,6.756 -5.462,6.079 -4.59,5.387C-3.428,4.465 -4.299,3.673 -4.589,2.823C-3.999,1.27 -2.626,2.011 -1.579,1.797C-0.884,2.127 -0.19,2.457 0.457,2.763C1.656,2.019 -0.406,0.53 1.341,0C3.128,0.442 2.106,2.073 2.528,3.109C2.23,5.216 4.305,5.63 5.365,6.884C5.428,10.693 1.153,10.422 0,13.313" style="fill:rgb(214,68,73);fill-rule:nonzero;"/>
                </g>
                <g transform="matrix(1,0,0,1,384.009,300.786)">
                    <path d="M0,0.182C-1.047,0.396 -2.42,-0.345 -3.01,1.209C-3.812,1.1 -4.615,0.991 -5.29,0.899C-6.651,2.01 -5.777,4.058 -7.445,4.833C-8.549,3.972 -9.681,3.09 -10.734,2.27C-11.037,-2.777 -11.037,-2.777 -6.425,-4.651C-4.454,-4.492 -3.514,-2.748 -2.051,-1.807C-1.383,-1.467 -0.714,-1.127 -0.046,-0.787C-0.017,-0.464 -0.002,-0.142 0,0.182" style="fill:rgb(211,66,65);fill-rule:nonzero;"/>
                </g>
                <g transform="matrix(1,0,0,1,383.963,297.947)">
                    <path d="M0,2.053C-0.668,1.713 -1.336,1.373 -2.005,1.032C-1.896,0.703 -1.787,0.374 -1.679,0.045C-0.265,0 0.147,0.793 0,2.053" style="fill:rgb(212,66,69);fill-rule:nonzero;"/>
                </g>
                <g transform="matrix(1,0,0,1,382.227,294.959)">
                    <path d="M0,-0.938C0.408,-0.849 0.591,-0.621 0.462,-0.286C0.413,-0.162 0.218,-0.094 0.09,0C0.06,-0.313 0.03,-0.625 0,-0.938" style="fill:rgb(212,66,69);fill-rule:nonzero;"/>
                </g>
                <g transform="matrix(1,0,0,1,382.227,299.358)">
                    <path d="M0,-5.336C-0.526,-7.983 1.282,-9.502 2.636,-11.628C6.226,-8.687 6.409,-5.406 5.166,-1.746C5.888,-1.082 6.651,-1.257 7.424,-1.651C12.645,-4.311 14.768,-2.913 14.747,3.252C14.158,4.626 12.588,5.098 11.736,6.292C9.73,5.541 10.724,3.278 9.444,2.1C8.109,1.432 7.222,3.273 5.89,2.923C5.469,1.887 6.49,0.256 4.703,-0.185C2.956,0.344 5.018,1.833 3.819,2.577C3.173,2.271 2.478,1.941 1.783,1.611C1.781,1.287 1.766,0.964 1.737,0.642C1.883,-0.618 1.472,-1.411 0.058,-1.366C0.068,-2.377 0.079,-3.387 0.09,-4.398C0.218,-4.492 0.413,-4.56 0.462,-4.684C0.591,-5.019 0.408,-5.247 0,-5.336" style="fill:rgb(212,59,63);fill-rule:nonzero;"/>
                </g>
                <g transform="matrix(1,0,0,1,385.589,299.172)">
                    <path d="M0,13.313C-2.358,11.466 -4.357,9.9 -6.18,8.473C-6.531,6.756 -5.462,6.079 -4.59,5.387C-3.428,4.465 -4.299,3.673 -4.589,2.823C-3.999,1.27 -2.626,2.011 -1.579,1.797C-0.884,2.127 -0.19,2.457 0.457,2.763C1.656,2.019 -0.406,0.53 1.341,0C3.128,0.442 2.106,2.073 2.528,3.109C2.23,5.216 4.305,5.63 5.365,6.884C5.428,10.693 1.153,10.422 0,13.313" style="fill:rgb(214,68,73);fill-rule:nonzero;"/>
                </g>
                <g transform="matrix(1,0,0,1,384.009,300.786)">
                    <path d="M0,0.182C-1.047,0.396 -2.42,-0.345 -3.01,1.209C-3.812,1.1 -4.615,0.991 -5.29,0.899C-6.651,2.01 -5.777,4.058 -7.445,4.833C-8.549,3.972 -9.681,3.09 -10.734,2.27C-11.037,-2.777 -11.037,-2.777 -6.425,-4.651C-4.454,-4.492 -3.514,-2.748 -2.051,-1.807C-1.383,-1.467 -0.714,-1.127 -0.046,-0.787C-0.017,-0.464 -0.002,-0.142 0,0.182" style="fill:rgb(211,66,65);fill-rule:nonzero;"/>
                </g>
                <g transform="matrix(1,0,0,1,383.963,297.947)">
                    <path d="M0,2.053C-0.668,1.713 -1.336,1.373 -2.005,1.032C-1.896,0.703 -1.787,0.374 -1.679,0.045C-0.265,0 0.147,0.793 0,2.053" style="fill:rgb(212,66,69);fill-rule:nonzero;"/>
                </g>
                <g transform="matrix(1,0,0,1,382.227,294.959)">
                    <path d="M0,-0.938C0.408,-0.849 0.591,-0.621 0.462,-0.286C0.413,-0.162 0.218,-0.094 0.09,0C0.06,-0.313 0.03,-0.625 0,-0.938" style="fill:rgb(212,66,69);fill-rule:nonzero;"/>
                </g>
            </g>
        </g>
    </g>
</svg>
