<?xml version="1.0" encoding="UTF-8" standalone="no"?>
<!DOCTYPE svg PUBLIC "-//W3C//DTD SVG 1.1//EN" "http://www.w3.org/Graphics/SVG/1.1/DTD/svg11.dtd">
<svg width="100%" height="100%" viewBox="0 0 46 54" version="1.1" xmlns="http://www.w3.org/2000/svg" xmlns:xlink="http://www.w3.org/1999/xlink" xml:space="preserve" xmlns:serif="http://www.serif.com/" style="fill-rule:evenodd;clip-rule:evenodd;stroke-linejoin:round;stroke-miterlimit:2;">
    <g transform="matrix(1,0,0,1,-614.027,-1054)">
        <g transform="matrix(1,0,0,1,108,-740)">
            <g id="iStock-611192924" transform="matrix(0.191943,0,0,0.191943,344.383,1510.02)">
                <path d="M1065.15,1479.51L854.854,1479.51C847.867,1479.51 842.146,1485.23 842.146,1492.22L842.146,1748.14C842.146,1755.13 847.867,1760.85 854.854,1760.85L1065.15,1760.85C1072.14,1760.85 1077.85,1755.13 1077.85,1748.14L1077.85,1492.22C1077.85,1485.23 1072.14,1479.51 1065.15,1479.51ZM1045.05,1713.73C1045.05,1720.72 1039.33,1726.44 1032.34,1726.44L1021.6,1726.44C1014.62,1726.44 1008.9,1720.72 1008.9,1713.73L1008.9,1710.99C1008.9,1704.01 1014.62,1698.29 1021.6,1698.29L1032.34,1698.29C1039.33,1698.29 1045.05,1704.01 1045.05,1710.99L1045.05,1713.73ZM978.071,1713.73C978.071,1720.72 972.358,1726.44 965.371,1726.44L954.633,1726.44C947.646,1726.44 941.929,1720.72 941.929,1713.73L941.929,1710.99C941.929,1704.01 947.646,1698.29 954.633,1698.29L965.371,1698.29C972.358,1698.29 978.071,1704.01 978.071,1710.99L978.071,1713.73ZM911.1,1713.73C911.1,1720.72 905.387,1726.44 898.396,1726.44L887.662,1726.44C880.675,1726.44 874.958,1720.72 874.958,1713.73L874.958,1710.99C874.958,1704.01 880.675,1698.29 887.662,1698.29L898.396,1698.29C905.387,1698.29 911.1,1704.01 911.1,1710.99L911.1,1713.73ZM1045.05,1664.75C1045.05,1671.73 1039.33,1677.45 1032.34,1677.45L1021.6,1677.45C1014.62,1677.45 1008.9,1671.73 1008.9,1664.75L1008.9,1662.01C1008.9,1655.02 1014.62,1649.3 1021.6,1649.3L1032.34,1649.3C1039.33,1649.3 1045.05,1655.02 1045.05,1662.01L1045.05,1664.75ZM978.071,1664.75C978.071,1671.73 972.358,1677.45 965.371,1677.45L954.633,1677.45C947.646,1677.45 941.929,1671.73 941.929,1664.75L941.929,1662.01C941.929,1655.02 947.646,1649.3 954.633,1649.3L965.371,1649.3C972.358,1649.3 978.071,1655.02 978.071,1662.01L978.071,1664.75ZM911.1,1664.75C911.1,1671.73 905.387,1677.45 898.396,1677.45L887.662,1677.45C880.675,1677.45 874.958,1671.73 874.958,1664.75L874.958,1662.01C874.958,1655.02 880.675,1649.3 887.662,1649.3L898.396,1649.3C905.387,1649.3 911.1,1655.02 911.1,1662.01L911.1,1664.75ZM1045.05,1608.13C1045.05,1615.12 1039.33,1620.84 1032.34,1620.84L887.662,1620.84C880.675,1620.84 874.958,1615.12 874.958,1608.13L874.958,1532.04C874.958,1525.05 880.675,1519.33 887.662,1519.33L1032.34,1519.33C1039.33,1519.33 1045.05,1525.05 1045.05,1532.04L1045.05,1608.13ZM982.587,1540.1C965.112,1536.84 960,1554.67 960,1554.67C960,1554.67 954.887,1536.84 937.417,1540.1C926.012,1542.22 919.842,1551.04 919.787,1561.82C919.642,1589.62 960,1609.44 960,1609.44C960,1609.44 1000.36,1589.62 1000.22,1561.82C1000.16,1551.04 993.987,1542.22 982.587,1540.1Z" style="fill:rgb(78,78,78);fill-rule:nonzero;"/>
            </g>
        </g>
    </g>
</svg>
