<?xml version="1.0" encoding="UTF-8" standalone="no"?>
<!DOCTYPE svg PUBLIC "-//W3C//DTD SVG 1.1//EN" "http://www.w3.org/Graphics/SVG/1.1/DTD/svg11.dtd">
<svg width="100%" height="100%" viewBox="0 0 50 60" version="1.1" xmlns="http://www.w3.org/2000/svg" xmlns:xlink="http://www.w3.org/1999/xlink" xml:space="preserve" xmlns:serif="http://www.serif.com/" style="fill-rule:evenodd;clip-rule:evenodd;stroke-linejoin:round;stroke-miterlimit:2;">
    <g transform="matrix(1,0,0,1,-1259,-1050)">
        <g transform="matrix(1,0,0,1,108,-740)">
            <g id="iStock-1276596437" transform="matrix(1,0,0,1,1120,1772)">
                <path d="M65,53L57.378,62.316C56.666,63.186 55.334,63.186 54.621,62.316L47,53C38.568,59.511 31,53 31,71.532C31,76.219 46.625,78 56,78C65.375,78 81,76.219 81,71.532C81,53 73.431,59.511 65,53ZM73,67.601C73,68.098 72.597,68.5 72.1,68.5L69.5,68.5L69.5,71.101C69.5,71.598 69.097,72 68.6,72L67.399,72C66.902,72 66.5,71.598 66.5,71.101L66.5,68.5L63.899,68.5C63.402,68.5 63,68.098 63,67.601L63,66.4C63,65.903 63.402,65.5 63.899,65.5L66.5,65.5L66.5,62.9C66.5,62.403 66.902,62 67.399,62L68.6,62C69.097,62 69.5,62.403 69.5,62.9L69.5,65.5L72.1,65.5C72.597,65.5 73,65.903 73,66.4L73,67.601ZM43.546,41.555C44.847,44.852 47.007,47.629 49.464,49.485C51.566,51.067 53.871,52 56,52C58.117,52 60.406,51.079 62.5,49.508C64.972,47.653 67.14,44.868 68.449,41.555C69.941,40.957 71,39.786 71,36.79C71,34.774 70.484,33.59 69.675,32.852C69.611,31.54 69.5,30.311 69.315,29.161C68.758,22.257 67.109,20.488 67.109,20.488C67.109,20.488 65.107,18 56,18C46.892,18 44.89,20.488 44.89,20.488C44.89,20.488 42.696,22.839 42.517,32.72C41.604,33.441 41,34.63 41,36.79C41,39.786 42.058,40.957 43.546,41.555ZM44.57,34.493L44.679,34.454C44.804,34.407 45.011,34.322 45.011,33.997C45.147,32.878 45.721,32.07 46.541,31.439C48.786,30.397 51.918,29.429 56,29.429C60.086,29.429 63.223,30.4 65.468,31.443C66.282,32.074 66.854,32.879 66.988,33.993C66.988,34.318 67.195,34.403 67.32,34.45L67.429,34.489C67.882,34.653 68.398,34.84 68.398,36.79C68.398,38.774 67.89,38.977 67.484,39.141C66.82,39.407 66.296,39.934 66.031,40.598C65.975,40.74 65.897,40.869 65.837,41.009C64.352,40.366 60.952,39.178 56,39.178C51.046,39.178 47.645,40.366 46.16,41.009C46.102,40.871 46.023,40.743 45.968,40.602C45.707,39.938 45.179,39.411 44.515,39.145C44.109,38.981 43.601,38.778 43.601,36.793C43.601,34.844 44.117,34.657 44.57,34.493ZM53,22.601C53,22.269 53.268,22 53.6,22L55,22L55,20.601C55,20.269 55.268,20 55.6,20L56.399,20C56.731,20 57,20.269 57,20.601L57,22L58.399,22C58.731,22 59,22.269 59,22.601L59,23.4C59,23.732 58.731,24 58.399,24L57,24L57,25.4C57,25.732 56.731,26 56.399,26L55.6,26C55.268,26 55,25.732 55,25.4L55,24L53.6,24C53.268,24 53,23.732 53,23.4L53,22.601Z" style="fill:rgb(78,78,78);fill-rule:nonzero;"/>
            </g>
        </g>
    </g>
</svg>
