<?xml version="1.0" encoding="UTF-8" standalone="no"?>
<!DOCTYPE svg PUBLIC "-//W3C//DTD SVG 1.1//EN" "http://www.w3.org/Graphics/SVG/1.1/DTD/svg11.dtd">
<svg width="100%" height="100%" viewBox="0 0 52 60" version="1.1" xmlns="http://www.w3.org/2000/svg" xmlns:xlink="http://www.w3.org/1999/xlink" xml:space="preserve" xmlns:serif="http://www.serif.com/" style="fill-rule:evenodd;clip-rule:evenodd;stroke-linejoin:round;stroke-miterlimit:2;">
    <g transform="matrix(1,0,0,1,-827.138,-1054.04)">
        <g transform="matrix(1,0,0,1,108,-740)">
            <g id="iStock-1300460479" transform="matrix(1.03448,0,0,1.03448,687.069,1650.25)">
                <path d="M71,156.066C71,155.514 70.552,155.066 70,155.066L64.761,155.066L61.884,149.602C61.698,149.246 61.327,149.047 60.918,149.07C60.519,149.102 60.177,149.369 60.051,149.75L56.113,161.566L51.966,145.813C51.853,145.381 51.467,145.076 51.022,145.066C50.51,145.057 50.177,145.344 50.044,145.77L47.154,155.066L42,155.066C41.447,155.066 41,155.514 41,156.066C41,156.619 41.447,157.066 42,157.066L47.89,157.066C48.328,157.066 48.715,156.781 48.845,156.363L50.919,149.691L55.033,165.32C55.145,165.748 55.525,166.051 55.967,166.066L56,166.066C56.429,166.066 56.812,165.791 56.948,165.383L61.207,152.607L63.273,156.531C63.446,156.861 63.787,157.066 64.158,157.066L70,157.066C70.552,157.066 71,156.619 71,156.066ZM75,150.959C75,158.347 70.368,162.284 65.003,166.844C62.817,168.702 60.339,170.807 57.821,173.415L57.366,173.887C57.013,174.254 56.514,174.467 56,174.467C55.485,174.467 54.986,174.254 54.631,173.884L54.179,173.416C51.663,170.81 49.189,168.707 47.005,166.852C41.636,162.288 37,158.347 37,150.959C37,143.474 42.565,139 47.945,139C51.019,139 53.827,140.366 56,142.884C58.172,140.366 60.981,139 64.054,139C69.434,139 75,143.474 75,150.959ZM46.055,177.612L41.822,173.877C40.589,172.779 38.782,172.726 37.484,173.638C37.715,173.788 37.943,173.945 38.152,174.131L45.076,180.249C45.198,179.282 45.527,178.38 46.055,177.612ZM79.388,192.56C77.969,194.667 76.403,195.957 75.263,196.697C74.451,197.225 73.384,197.044 72.765,196.3C69.62,192.521 64.442,193 58.844,193C50.94,193 46.192,193.512 41.101,188.886L32.168,180.818C30.73,179.539 30.601,177.315 31.881,175.877C33.161,174.438 35.384,174.31 36.822,175.589L45.447,183.254C46.341,185.447 48.489,187 51,187L62.6,187C62.6,187 60.558,185 56.6,185L51,185C48.799,185 47,183.2 47,181C47,178.8 48.799,177 51,177L60.898,177L61,176.96C66.94,173.824 74.78,173.222 80.463,184.034C80.586,184.27 80.681,184.515 80.741,184.773C81.01,185.938 81.536,189.368 79.388,192.56Z" style="fill:rgb(78,78,78);fill-rule:nonzero;"/>
            </g>
        </g>
    </g>
</svg>
