<?xml version="1.0" encoding="UTF-8" standalone="no"?>
<!DOCTYPE svg PUBLIC "-//W3C//DTD SVG 1.1//EN" "http://www.w3.org/Graphics/SVG/1.1/DTD/svg11.dtd">
<svg width="100%" height="100%" viewBox="0 0 64 58" version="1.1" xmlns="http://www.w3.org/2000/svg" xmlns:xlink="http://www.w3.org/1999/xlink" xml:space="preserve" xmlns:serif="http://www.serif.com/" style="fill-rule:evenodd;clip-rule:evenodd;stroke-linejoin:round;stroke-miterlimit:2;">
    <g transform="matrix(1,0,0,1,-1038,-1052)">
        <g transform="matrix(1,0,0,1,108,-740)">
            <g transform="matrix(1,0,0,1,906,1653)">
                <path d="M59.88,171L54.569,140.654C54.4,139.686 53.595,139.057 52.562,139C51.577,139.02 50.752,139.752 50.618,140.729L44.926,182.26L39.567,152.645C39.396,151.699 38.577,151.008 37.616,151L37.599,151C36.645,151 35.823,151.674 35.637,152.611L31.991,171L26,171C24.895,171 24,171.895 24,173C24,174.105 24.895,175 26,175L33.633,175C34.588,175 35.41,174.326 35.595,173.389L37.509,163.734L43.232,195.355C43.404,196.311 44.235,197 45.199,197L45.243,197C46.226,196.979 47.047,196.246 47.181,195.271L52.839,153.977L56.23,173.346C56.397,174.303 57.228,175 58.2,175L65.305,175C64.62,173.847 64.182,172.541 64.063,171L59.88,171ZM80.996,162.572C79.099,162.572 77.364,163.379 76,164.871C74.635,163.379 72.9,162.572 71.003,162.572C67.561,162.572 64,165.426 64,170.203C64,170.484 64.043,170.734 64.063,171L75,171C76.104,171 77,171.895 77,173C77,174.105 76.104,175 75,175L65.305,175C66.47,176.96 68.286,178.529 70.282,180.225C71.633,181.373 73.165,182.676 74.715,184.281L75.002,184.578C75.262,184.846 75.626,185 76,185C76.374,185 76.737,184.846 77.002,184.574L77.284,184.283C78.838,182.67 80.371,181.369 81.723,180.221L81.729,180.217C85.094,177.355 88,174.883 88,170.203C88,165.426 84.438,162.572 80.996,162.572Z" style="fill:rgb(78,78,78);fill-rule:nonzero;"/>
            </g>
        </g>
    </g>
</svg>
