<?xml version="1.0" encoding="UTF-8" standalone="no"?>
<!DOCTYPE svg PUBLIC "-//W3C//DTD SVG 1.1//EN" "http://www.w3.org/Graphics/SVG/1.1/DTD/svg11.dtd">
<svg width="100%" height="100%" viewBox="0 0 60 73" version="1.1" xmlns="http://www.w3.org/2000/svg" xmlns:xlink="http://www.w3.org/1999/xlink" xml:space="preserve" xmlns:serif="http://www.serif.com/" style="fill-rule:evenodd;clip-rule:evenodd;stroke-linejoin:round;stroke-miterlimit:2;">
    <g transform="matrix(1,0,0,1,-1110.44,-1180)">
        <g id="iStock-1248485416" transform="matrix(1.24999,0,0,1.24999,1070.44,1156.25)">
            <path d="M41.98,32.496C42.197,30.483 42.917,28.54 44.096,26.811C43.653,25.042 43.238,23.327 43.053,22.395C42.694,20.582 39.302,20.927 37.308,21.293C35.187,21.684 31.679,22.644 32.023,24.666C32.202,25.97 34.227,36.567 34.668,38.876C36.362,36.262 38.819,34.085 41.98,32.496ZM66.33,29.796C65.911,28.953 65.351,28.188 64.817,27.493L66.785,25.373C67.121,25.011 67.277,24.524 67.214,24.035C67.152,23.545 66.878,23.113 66.463,22.848L61.974,19.973C61.54,19.693 61.008,19.635 60.518,19.808C60.029,19.984 59.658,20.37 59.5,20.866L58.749,23.218C58.134,23.1 57.407,23.029 56.712,23.047L56.462,20.498C56.417,20.024 56.168,19.592 55.782,19.314C55.394,19.035 54.905,18.936 54.442,19.042L49.17,20.248C48.698,20.356 48.297,20.664 48.072,21.093C47.846,21.523 47.82,22.028 48,22.479L48.957,24.875C45.822,27.072 44.042,30.331 44.049,33.748C43.711,33.903 43.385,34.019 43.043,34.188C36.087,37.605 34.307,43.015 34.038,46.953C33.718,51.637 35.442,56.8 38.561,61.331C41.062,42.771 50.043,32.547 66.33,29.796ZM76.139,32.991C77.13,32.991 78,34.393 78,35.991C78,37.588 77.13,38.991 76.139,38.991C75.148,38.991 74.279,37.588 74.279,35.991C74.279,34.393 75.148,32.991 76.139,32.991ZM74.513,43.33C72.579,43.825 71.183,44.675 70.575,45.769C69.892,46.999 70.281,48.38 70.727,49.322C70.964,49.821 70.752,50.417 70.252,50.654C70.114,50.719 69.968,50.75 69.825,50.75C69.45,50.75 69.091,50.54 68.92,50.179C67.992,48.221 67.96,46.361 68.827,44.798C69.628,43.355 71.196,42.264 73.334,41.595L73.333,41.595C73.335,41.594 73.337,41.594 73.337,41.594C73.752,41.464 74.615,41.174 76.158,40.999C78.176,40.771 80,39.103 80,35.991C80,33.187 78.304,30.991 76.139,30.991C71.513,30.991 68.082,31.522 68.008,31.532C51.266,33.922 42.37,44.319 40.31,63.62C41.639,65.204 43.144,66.673 44.798,67.971C45.032,68.091 48.081,69.571 52.682,69.009C52.797,67.475 53.501,63.405 57.589,59.472C57.989,59.09 58.622,59.101 59.003,59.499C59.386,59.898 59.374,60.531 58.976,60.914C55.748,64.019 54.937,67.135 54.732,68.641C58.124,67.819 62.145,65.842 66.415,61.641C66.807,61.253 67.44,61.256 67.829,61.653C68.216,62.046 68.21,62.679 67.817,63.067C65.739,65.111 63.708,66.668 61.761,67.843C63.054,68.543 65.465,69.51 68.212,68.86C68.755,68.738 69.289,69.066 69.417,69.603C69.543,70.141 69.21,70.679 68.673,70.807C67.864,70.998 67.082,71.079 66.338,71.079C62.993,71.079 60.437,69.452 59.725,68.949C56.291,70.622 53.186,71.149 50.653,71.149C50.263,71.149 49.897,71.128 49.535,71.105C55.538,74.595 62.291,77 67.754,77C70.668,77 73.212,76.319 75.077,74.759C78.484,71.91 80.266,66.543 79.967,60.037C79.737,55.021 78.093,48.861 74.513,43.33Z" style="fill:white;fill-rule:nonzero;"/>
        </g>
    </g>
</svg>
