<?xml version="1.0" encoding="UTF-8" standalone="no"?>
<!DOCTYPE svg PUBLIC "-//W3C//DTD SVG 1.1//EN" "http://www.w3.org/Graphics/SVG/1.1/DTD/svg11.dtd">
<svg width="100%" height="100%" viewBox="0 0 90 70" version="1.1" xmlns="http://www.w3.org/2000/svg" xmlns:xlink="http://www.w3.org/1999/xlink" xml:space="preserve" xmlns:serif="http://www.serif.com/" style="fill-rule:evenodd;clip-rule:evenodd;stroke-linejoin:round;stroke-miterlimit:2;">
    <g transform="matrix(1,0,0,1,-330.009,-560)">
        <g id="iStock-611192924" transform="matrix(1.1645,0,0,1.1645,159.096,142.062)">
            <path d="M222.294,392.821L193.72,392.821C192.779,392.821 191.919,392.289 191.499,391.447L189.702,387.845L184.603,401.562C184.242,402.536 183.313,403.179 182.277,403.179L182.231,403.179C181.177,403.159 180.25,402.476 179.92,401.475L174.346,384.575L171.658,391.265C171.28,392.205 170.369,392.821 169.355,392.821L160.057,392.821C158.687,392.821 157.575,391.71 157.575,390.339C157.575,388.969 158.687,387.857 160.057,387.857L167.678,387.857L172.273,376.422C172.662,375.455 173.618,374.835 174.654,374.867C175.696,374.9 176.606,375.58 176.933,376.57L182.417,393.199L187.043,380.752C187.388,379.826 188.25,379.191 189.237,379.139C190.227,379.085 191.149,379.625 191.59,380.509L195.256,387.857L213.875,387.857C215.121,384.703 215.854,381.375 215.836,377.897C215.787,368.638 210.488,361.065 200.698,359.24C185.691,356.442 181.302,371.755 181.302,371.755C181.302,371.755 176.913,356.442 161.907,359.24C152.118,361.065 146.818,368.638 146.77,377.897C146.647,401.768 181.302,418.787 181.302,418.787C181.302,418.787 198.852,410.16 208.929,396.582L222.169,396.582C223.211,396.582 224.056,395.737 224.056,394.695C224.056,393.696 223.277,392.887 222.294,392.821Z" style="fill:white;fill-rule:nonzero;"/>
        </g>
    </g>
</svg>
