<?xml version="1.0" encoding="UTF-8" standalone="no"?>
<!DOCTYPE svg PUBLIC "-//W3C//DTD SVG 1.1//EN" "http://www.w3.org/Graphics/SVG/1.1/DTD/svg11.dtd">
<svg width="100%" height="100%" viewBox="0 0 21 21" version="1.1" xmlns="http://www.w3.org/2000/svg" xmlns:xlink="http://www.w3.org/1999/xlink" xml:space="preserve" xmlns:serif="http://www.serif.com/" style="fill-rule:evenodd;clip-rule:evenodd;stroke-linejoin:round;stroke-miterlimit:2;">
    <g transform="matrix(1,0,0,1,-890,-4640)">
        <g transform="matrix(1,0,0,1,0,1909.95)">
            <g transform="matrix(1,0,0,1,0,-1909.95)">
                <path d="M895,4640L890,4640L890,4645L895,4645L895,4640ZM895,4648L890,4648L890,4653L895,4653L895,4648ZM895,4656L890,4656L890,4661L895,4661L895,4656ZM903,4640L898,4640L898,4645L903,4645L903,4640ZM903,4648L898,4648L898,4653L903,4653L903,4648ZM903,4656L898,4656L898,4661L903,4661L903,4656ZM911,4640L906,4640L906,4645L911,4645L911,4640ZM911,4648L906,4648L906,4653L911,4653L911,4648ZM911,4656L906,4656L906,4661L911,4661L911,4656Z" style="fill:rgb(211,44,44);"/>
            </g>
        </g>
    </g>
</svg>
