<?xml version="1.0" encoding="UTF-8" standalone="no"?>
<!DOCTYPE svg PUBLIC "-//W3C//DTD SVG 1.1//EN" "http://www.w3.org/Graphics/SVG/1.1/DTD/svg11.dtd">
<svg width="100%" height="100%" viewBox="0 0 24 23" version="1.1" xmlns="http://www.w3.org/2000/svg" xmlns:xlink="http://www.w3.org/1999/xlink" xml:space="preserve" xmlns:serif="http://www.serif.com/" style="fill-rule:evenodd;clip-rule:evenodd;stroke-linejoin:round;stroke-miterlimit:2;">
    <g transform="matrix(1,0,0,1,-183,-574)">
        <g transform="matrix(0.0536398,0,0,0.972222,143.586,-102.361)">
            <g id="home" transform="matrix(0.873881,0,0,0.0482141,734.786,695.075)">
                <path d="M503.402,228.885L273.684,19.567C263.601,10.378 248.396,10.379 238.317,19.566L8.598,228.886C0.521,236.246 -2.147,247.586 1.799,257.775C5.746,267.964 15.356,274.547 26.283,274.547L62.973,274.547L62.973,484.268C62.973,492.583 69.715,499.325 78.03,499.325L203.944,499.325C212.259,499.325 219.001,492.584 219.001,484.268L219.001,356.932L293.003,356.932L293.003,484.269C293.003,492.584 299.745,499.326 308.06,499.326L433.968,499.326C442.283,499.326 449.025,492.585 449.025,484.269L449.025,274.547L485.722,274.547C496.648,274.547 506.259,267.963 510.206,257.775C514.147,247.585 511.479,236.246 503.402,228.885ZM445.092,42.73L343.973,42.73L460.149,148.366L460.149,57.786C460.149,49.471 453.408,42.73 445.092,42.73Z" style="fill:white;fill-rule:nonzero;"/>
            </g>
        </g>
    </g>
</svg>
