<?xml version="1.0" encoding="UTF-8" standalone="no"?>
<!DOCTYPE svg PUBLIC "-//W3C//DTD SVG 1.1//EN" "http://www.w3.org/Graphics/SVG/1.1/DTD/svg11.dtd">
<svg width="100%" height="100%" viewBox="0 0 18 13" version="1.1" xmlns="http://www.w3.org/2000/svg" xmlns:xlink="http://www.w3.org/1999/xlink" xml:space="preserve" xmlns:serif="http://www.serif.com/" style="fill-rule:evenodd;clip-rule:evenodd;stroke-linejoin:round;stroke-miterlimit:2;">
    <g transform="matrix(1,0,0,1,-876,-4511)">
        <g transform="matrix(0.406977,0,0,1.27273,296.512,4278.09)">
            <g id="_109609Download-Arrow" serif:id="109609Download Arrow" transform="matrix(1.24088e-16,-0.648012,2.02651,3.96793e-17,1423.89,195.118)">
                <path d="M16.791,13.254C17.235,12.81 17.934,12.81 18.378,13.254C18.807,13.698 18.807,14.397 18.378,14.841L11.728,21.492C11.522,21.698 11.236,21.825 10.919,21.825C10.602,21.825 10.316,21.698 10.109,21.492L3.459,14.841C3.015,14.397 3.015,13.698 3.459,13.254C3.903,12.81 4.602,12.81 5.046,13.254L9.792,18.016L9.792,1.111C9.791,0.492 10.299,0 10.918,0C11.537,0 12.029,0.492 12.029,1.111L12.029,18.015L16.791,13.254Z" style="fill:white;fill-rule:nonzero;"/>
            </g>
        </g>
    </g>
</svg>
