<?xml version="1.0" encoding="UTF-8" standalone="no"?>
<!DOCTYPE svg PUBLIC "-//W3C//DTD SVG 1.1//EN" "http://www.w3.org/Graphics/SVG/1.1/DTD/svg11.dtd">
<svg width="100%" height="100%" viewBox="0 0 40 38" version="1.1" xmlns="http://www.w3.org/2000/svg" xmlns:xlink="http://www.w3.org/1999/xlink" xml:space="preserve" xmlns:serif="http://www.serif.com/" style="fill-rule:evenodd;clip-rule:evenodd;stroke-linejoin:round;stroke-miterlimit:2;">
    <g transform="matrix(1,0,0,1,-1038.58,-426.186)">
        <g transform="matrix(0.133034,0,0,0.133034,844.489,401.393)">
            <path d="M1658.16,469.217L1698.38,469.217L1698.38,452.058L1658.16,452.058L1658.16,469.217ZM1716.39,469.217L1756.61,469.217L1756.61,452.058L1716.39,452.058L1716.39,469.217ZM1599.92,469.217L1640.14,469.217L1640.14,452.058L1599.92,452.058L1599.92,469.217ZM1668.14,335.75C1653.34,356.746 1626.6,393.2 1606.82,411.754C1577.44,439.317 1547.7,453.262 1518.34,453.262C1516.79,453.262 1515.24,453.225 1513.7,453.146C1495.57,452.233 1480.76,446.125 1469.87,439.638L1458.92,450.071C1458.92,450.071 1530.4,506.467 1615.95,419.837C1655.18,380.112 1665.45,349.442 1668.14,335.75ZM1600.58,405.096C1621.71,385.267 1652.16,342.737 1665.2,324.013L1665.05,323.867L1667.54,320.629C1669.99,317.083 1671.43,314.942 1671.51,314.825L1671.83,315.046L1681.29,302.762L1694.46,308.979L1759.6,235.558L1706.47,186.367L1625.19,276.292L1634.88,280.867L1618.42,298.083L1476.83,433.013C1486.5,438.425 1499.18,443.304 1514.29,444.038C1542.56,445.412 1571.58,432.304 1600.58,405.096ZM1642.38,297.029L1654.67,308.933L1595.01,370.633L1581.98,357.679L1642.38,297.029Z" style="fill:rgb(212,66,69);fill-opacity:0.5;fill-rule:nonzero;"/>
        </g>
    </g>
</svg>
