<?xml version="1.0" encoding="UTF-8" standalone="no"?>
<!DOCTYPE svg PUBLIC "-//W3C//DTD SVG 1.1//EN" "http://www.w3.org/Graphics/SVG/1.1/DTD/svg11.dtd">
<svg width="100%" height="100%" viewBox="0 0 41 40" version="1.1" xmlns="http://www.w3.org/2000/svg" xmlns:xlink="http://www.w3.org/1999/xlink" xml:space="preserve" xmlns:serif="http://www.serif.com/" style="fill-rule:evenodd;clip-rule:evenodd;stroke-linejoin:round;stroke-miterlimit:2;">
    <g transform="matrix(1,0,0,1,-642.319,-720.897)">
        <g transform="matrix(0.13716,0,0,0.13716,440.229,637.168)">
            <path d="M1723.62,736.521C1696.83,736.521 1675.11,758.242 1675.11,785.033C1675.11,806.296 1688.82,824.321 1707.86,830.871C1701.98,857.758 1686.63,877.538 1648.47,877.538C1628.08,877.538 1612.42,871.621 1601.93,859.954C1585.11,841.263 1584.71,812.333 1585.1,802.546C1657.54,792.3 1672.85,690.121 1672.85,661.687C1672.85,656.221 1670.16,638.917 1639.68,626.463C1636.5,617.171 1627.78,610.446 1617.41,610.446C1604.36,610.446 1593.78,621.029 1593.78,634.079C1593.78,647.133 1604.36,657.713 1617.41,657.713C1623.85,657.713 1629.67,655.121 1633.93,650.95C1641.92,654.858 1647.88,659.312 1648.31,661.687C1648.31,662.858 1642.7,778.904 1573.12,778.904C1503.53,778.904 1497.92,662.858 1497.92,661.746C1498.35,659.292 1504.25,654.862 1512.3,650.942C1516.56,655.121 1522.38,657.713 1528.82,657.713C1541.87,657.713 1552.45,647.133 1552.45,634.079C1552.45,621.029 1541.87,610.446 1528.82,610.446C1518.45,610.446 1509.73,617.171 1506.55,626.463C1476.07,638.917 1473.38,656.221 1473.38,661.687C1473.38,690.042 1488.6,791.758 1560.54,802.467C1560.07,816.4 1561.35,851.429 1583.57,876.237C1598.92,893.383 1620.75,902.075 1648.47,902.075C1706.59,902.075 1725.95,865.196 1732.46,832.7C1755.03,828.542 1772.14,808.8 1772.14,785.033C1772.14,758.242 1750.42,736.521 1723.62,736.521ZM1723.62,810.696C1709.47,810.696 1697.96,799.183 1697.96,785.029C1697.96,770.879 1709.47,759.367 1723.62,759.367C1737.78,759.367 1749.29,770.879 1749.29,785.029C1749.29,799.183 1737.78,810.696 1723.62,810.696ZM1723.62,771.812C1716.33,771.812 1710.4,777.742 1710.4,785.029C1710.4,792.321 1716.33,798.254 1723.62,798.254C1730.92,798.254 1736.84,792.321 1736.84,785.029C1736.84,777.742 1730.92,771.812 1723.62,771.812Z" style="fill:rgb(212,66,69);fill-opacity:0.5;fill-rule:nonzero;"/>
        </g>
    </g>
</svg>
