<?xml version="1.0" encoding="UTF-8" standalone="no"?>
<!DOCTYPE svg PUBLIC "-//W3C//DTD SVG 1.1//EN" "http://www.w3.org/Graphics/SVG/1.1/DTD/svg11.dtd">
<svg width="100%" height="100%" viewBox="0 0 50 37" version="1.1" xmlns="http://www.w3.org/2000/svg" xmlns:xlink="http://www.w3.org/1999/xlink" xml:space="preserve" xmlns:serif="http://www.serif.com/" style="fill-rule:evenodd;clip-rule:evenodd;stroke-linejoin:round;stroke-miterlimit:2;">
    <g transform="matrix(1,0,0,1,-1034.92,-720)">
        <g transform="matrix(0.592157,0,0,0.628045,770.101,687.955)">
            <path d="M467.091,55.25L467.091,56.307C471.629,56.307 476.509,57.977 481.324,61.114C478.309,61.821 476.706,62.519 476.139,63.97C475.863,64.677 475.908,65.438 476.256,66.112C476.533,66.908 477.385,68.782 479.528,69.902L479.719,70.001C480.846,70.593 482.248,71.33 484.369,71.33C486.099,71.33 488.087,70.857 490.623,69.842C490.643,69.834 490.827,69.765 491.248,69.765C491.635,69.765 492.134,69.828 492.706,69.967C495.641,72.333 497.611,73.937 497.629,73.951C501.685,77.345 508.758,83.872 510.466,86.937C510.553,87.104 510.806,88.214 509.833,89.126C509.438,89.496 508.902,89.973 508.269,90.521L499.544,82.524L496.688,85.639L505.006,93.262C503.933,94.142 502.773,95.079 501.588,96.019L493.666,88.763L490.812,91.88L498.208,98.654C496.965,99.605 495.761,100.502 494.667,101.289L487.916,95.086L485.056,98.197L491.04,103.695C490.67,103.902 490.361,104.053 490.135,104.126C489.334,104.303 488.658,104.389 488.067,104.389C487.437,104.389 486.893,104.293 486.308,104.074C485.483,103.387 483.311,101.569 480.455,99.121C480.951,98.521 481.289,97.911 481.487,97.544C482.805,94.988 483.059,89.329 481.094,87.552C480.425,86.92 479.694,86.572 478.917,86.514C479.217,84.615 479.039,82.642 477.776,81.02L477.758,80.996L477.739,80.973C476.801,79.837 475.734,79.599 475.003,79.599C474.752,79.599 474.51,79.625 474.275,79.674C474.396,78.866 474.406,78.071 474.249,77.336C473.99,76.123 473.319,75.147 472.308,74.514C471.559,74.045 470.776,73.808 469.979,73.808C469.235,73.808 468.58,74.002 467.994,74.317C467.992,74.271 467.991,74.226 467.989,74.182C467.923,72.902 467.529,71.931 466.817,71.296L466.783,71.266L466.747,71.237C466.466,71.006 465.61,70.307 464.402,70.307C463.018,70.307 461.955,71.15 460.711,72.251L460.386,72.537C459.288,73.496 457.592,74.984 456.513,76.773C455.754,75.917 455.08,75.114 454.53,74.391C452.18,71.298 451.847,67.477 453.618,63.907C455.44,60.234 459.935,56.308 467.088,56.307L467.089,55.25L467.091,55.25ZM526.152,56.604C522.498,53.093 518.051,51.313 512.935,51.313C505.551,51.313 498.204,55.054 493.342,57.53C492.164,58.13 491.148,58.648 490.294,59.034C489.848,59.235 489.118,59.441 488.268,59.645C487.908,59.36 487.548,59.073 487.184,58.785C480.571,53.708 473.622,51.024 467.087,51.024C459.083,51.024 452.109,55.061 448.886,61.559C446.229,66.914 446.767,72.906 450.325,77.587C457.572,87.124 482.256,107.579 483.303,108.446L483.485,108.579C484.783,109.439 486.271,109.875 487.904,109.875C489.07,109.875 490.301,109.649 491.565,109.204C495.267,107.901 510.939,95.67 513.487,92.941L521.229,85.684L521.273,85.643L521.314,85.6L527.678,78.916L527.708,78.884L527.737,78.851C527.835,78.739 537.468,67.475 526.152,56.604Z" style="fill:rgb(212,66,69);fill-opacity:0.5;fill-rule:nonzero;"/>
        </g>
    </g>
</svg>
