<?xml version="1.0" encoding="UTF-8" standalone="no"?>
<!DOCTYPE svg PUBLIC "-//W3C//DTD SVG 1.1//EN" "http://www.w3.org/Graphics/SVG/1.1/DTD/svg11.dtd">
<svg width="100%" height="100%" viewBox="0 0 34 40" version="1.1" xmlns="http://www.w3.org/2000/svg" xmlns:xlink="http://www.w3.org/1999/xlink" xml:space="preserve" xmlns:serif="http://www.serif.com/" style="fill-rule:evenodd;clip-rule:evenodd;stroke-linejoin:round;stroke-miterlimit:2;">
    <g transform="matrix(1,0,0,1,-646.042,-424.66)">
        <g transform="matrix(0.14218,0,0,0.14218,372.85,214.303)">
            <path d="M2144.45,1479.51L1934.16,1479.51C1927.17,1479.51 1921.45,1485.23 1921.45,1492.22L1921.45,1748.14C1921.45,1755.13 1927.17,1760.85 1934.16,1760.85L2144.45,1760.85C2151.44,1760.85 2157.16,1755.13 2157.16,1748.14L2157.16,1492.22C2157.16,1485.23 2151.44,1479.51 2144.45,1479.51ZM2124.35,1713.73C2124.35,1720.72 2118.63,1726.44 2111.65,1726.44L2100.91,1726.44C2093.92,1726.44 2088.21,1720.72 2088.21,1713.73L2088.21,1710.99C2088.21,1704.01 2093.92,1698.29 2100.91,1698.29L2111.65,1698.29C2118.63,1698.29 2124.35,1704.01 2124.35,1710.99L2124.35,1713.73ZM2057.38,1713.73C2057.38,1720.72 2051.66,1726.44 2044.67,1726.44L2033.94,1726.44C2026.95,1726.44 2021.23,1720.72 2021.23,1713.73L2021.23,1710.99C2021.23,1704.01 2026.95,1698.29 2033.94,1698.29L2044.67,1698.29C2051.66,1698.29 2057.38,1704.01 2057.38,1710.99L2057.38,1713.73ZM1990.4,1713.73C1990.4,1720.72 1984.69,1726.44 1977.7,1726.44L1966.97,1726.44C1959.98,1726.44 1954.26,1720.72 1954.26,1713.73L1954.26,1710.99C1954.26,1704.01 1959.98,1698.29 1966.97,1698.29L1977.7,1698.29C1984.69,1698.29 1990.4,1704.01 1990.4,1710.99L1990.4,1713.73ZM2124.35,1664.75C2124.35,1671.73 2118.63,1677.45 2111.65,1677.45L2100.91,1677.45C2093.92,1677.45 2088.21,1671.73 2088.21,1664.75L2088.21,1662.01C2088.21,1655.02 2093.92,1649.3 2100.91,1649.3L2111.65,1649.3C2118.63,1649.3 2124.35,1655.02 2124.35,1662.01L2124.35,1664.75ZM2057.38,1664.75C2057.38,1671.73 2051.66,1677.45 2044.67,1677.45L2033.94,1677.45C2026.95,1677.45 2021.23,1671.73 2021.23,1664.75L2021.23,1662.01C2021.23,1655.02 2026.95,1649.3 2033.94,1649.3L2044.67,1649.3C2051.66,1649.3 2057.38,1655.02 2057.38,1662.01L2057.38,1664.75ZM1990.4,1664.75C1990.4,1671.73 1984.69,1677.45 1977.7,1677.45L1966.97,1677.45C1959.98,1677.45 1954.26,1671.73 1954.26,1664.75L1954.26,1662.01C1954.26,1655.02 1959.98,1649.3 1966.97,1649.3L1977.7,1649.3C1984.69,1649.3 1990.4,1655.02 1990.4,1662.01L1990.4,1664.75ZM2124.35,1608.13C2124.35,1615.12 2118.63,1620.84 2111.65,1620.84L1966.97,1620.84C1959.98,1620.84 1954.26,1615.12 1954.26,1608.13L1954.26,1532.04C1954.26,1525.05 1959.98,1519.33 1966.97,1519.33L2111.65,1519.33C2118.63,1519.33 2124.35,1525.05 2124.35,1532.04L2124.35,1608.13ZM2061.89,1540.1C2044.42,1536.84 2039.3,1554.67 2039.3,1554.67C2039.3,1554.67 2034.19,1536.84 2016.72,1540.1C2005.32,1542.22 1999.15,1551.04 1999.09,1561.82C1998.95,1589.62 2039.3,1609.44 2039.3,1609.44C2039.3,1609.44 2079.66,1589.62 2079.52,1561.82C2079.47,1551.04 2073.29,1542.22 2061.89,1540.1Z" style="fill:rgb(212,66,69);fill-opacity:0.5;fill-rule:nonzero;"/>
        </g>
    </g>
</svg>
